<svg width="20" height="20" viewBox="0 0 20 20" fill="none" xmlns="http://www.w3.org/2000/svg">
<mask id="path-1-inside-1_2_21" fill="white">
<path d="M19.8674 11.623C19.5464 13.5746 18.6539 15.3871 17.3028 16.8315C15.9517 18.2758 14.2026 19.2871 12.2767 19.7374C10.3508 20.1877 8.33466 20.0568 6.48319 19.3612C4.63172 18.6656 3.02808 17.4367 1.87507 15.8297C0.722064 14.2228 0.0714676 12.31 0.00555471 10.3333C-0.0603582 8.35655 0.461373 6.40468 1.50477 4.72448C2.54817 3.04428 4.06638 1.71122 5.8674 0.89387C7.66842 0.0765186 9.67137 -0.188412 11.623 0.132579L11.3253 1.9423C9.73164 1.68018 8.09604 1.89652 6.62533 2.56397C5.15463 3.23142 3.91487 4.31999 3.06283 5.69203C2.2108 7.06407 1.78475 8.65796 1.83858 10.2721C1.8924 11.8863 2.42367 13.4483 3.36522 14.7605C4.30676 16.0728 5.61628 17.0763 7.12818 17.6443C8.64009 18.2123 10.2865 18.3192 11.8591 17.9515C13.4318 17.5838 14.8601 16.758 15.9634 15.5786C17.0668 14.3991 17.7956 12.919 18.0577 11.3253L19.8674 11.623Z"/>
</mask>
<path d="M19.8674 11.623C19.5464 13.5746 18.6539 15.3871 17.3028 16.8315C15.9517 18.2758 14.2026 19.2871 12.2767 19.7374C10.3508 20.1877 8.33466 20.0568 6.48319 19.3612C4.63172 18.6656 3.02808 17.4367 1.87507 15.8297C0.722064 14.2228 0.0714676 12.31 0.00555471 10.3333C-0.0603582 8.35655 0.461373 6.40468 1.50477 4.72448C2.54817 3.04428 4.06638 1.71122 5.8674 0.89387C7.66842 0.0765186 9.67137 -0.188412 11.623 0.132579L11.3253 1.9423C9.73164 1.68018 8.09604 1.89652 6.62533 2.56397C5.15463 3.23142 3.91487 4.31999 3.06283 5.69203C2.2108 7.06407 1.78475 8.65796 1.83858 10.2721C1.8924 11.8863 2.42367 13.4483 3.36522 14.7605C4.30676 16.0728 5.61628 17.0763 7.12818 17.6443C8.64009 18.2123 10.2865 18.3192 11.8591 17.9515C13.4318 17.5838 14.8601 16.758 15.9634 15.5786C17.0668 14.3991 17.7956 12.919 18.0577 11.3253L19.8674 11.623Z" stroke="white" stroke-width="10" mask="url(#path-1-inside-1_2_21)"/>
</svg>
